<svg xmlns="http://www.w3.org/2000/svg" width="1800" height="1250" viewBox="0 0 1800 1250">
  <defs>
    <style>
      .bg { fill: #f7f9fc; }
      .title { font-family: Arial, sans-serif; font-size: 30px; font-weight: 700; fill: #182230; }
      .subtitle { font-family: Arial, sans-serif; font-size: 18px; fill: #475467; }
      .class { fill: #ffffff; stroke: #344054; stroke-width: 2; rx: 8; }
      .head { fill: #eaf2ff; stroke: #344054; stroke-width: 2; }
      .head-green { fill: #eafaf0; stroke: #344054; stroke-width: 2; }
      .head-orange { fill: #fff4e6; stroke: #344054; stroke-width: 2; }
      .head-purple { fill: #f2edff; stroke: #344054; stroke-width: 2; }
      .class-name { font-family: Arial, sans-serif; font-size: 17px; font-weight: 700; fill: #182230; text-anchor: middle; }
      .attr { font-family: Arial, sans-serif; font-size: 13px; fill: #344054; }
      .rel { stroke: #667085; stroke-width: 2; fill: none; }
      .label { font-family: Arial, sans-serif; font-size: 13px; fill: #475467; font-weight: 700; }
      .legend { font-family: Arial, sans-serif; font-size: 14px; fill: #344054; }
    </style>
  </defs>

  <rect class="bg" width="1800" height="1250"/>
  <text class="title" x="900" y="45" text-anchor="middle">Diagramme de classes</text>
  <text class="subtitle" x="900" y="75" text-anchor="middle">Plateforme numerique de gestion et de suivi des stages</text>

  <!-- Class helper pattern: outer rect, header, name, attrs -->
  <g transform="translate(70 125)">
    <rect class="class" width="230" height="145"/>
    <rect class="head" width="230" height="38"/>
    <text class="class-name" x="115" y="25">Role</text>
    <text class="attr" x="14" y="62">+ id : int</text>
    <text class="attr" x="14" y="84">+ libelle : String</text>
    <text class="attr" x="14" y="106">+ description : String</text>
  </g>

  <g transform="translate(380 110)">
    <rect class="class" width="250" height="215"/>
    <rect class="head" width="250" height="38"/>
    <text class="class-name" x="125" y="25">Utilisateur</text>
    <text class="attr" x="14" y="62">+ id : int</text>
    <text class="attr" x="14" y="84">+ nom : String</text>
    <text class="attr" x="14" y="106">+ prenom : String</text>
    <text class="attr" x="14" y="128">+ email : String</text>
    <text class="attr" x="14" y="150">+ motDePasse : String</text>
    <text class="attr" x="14" y="172">+ telephone : String</text>
    <text class="attr" x="14" y="194">+ statut : String</text>
  </g>

  <g transform="translate(720 105)">
    <rect class="class" width="270" height="245"/>
    <rect class="head-orange" width="270" height="38"/>
    <text class="class-name" x="135" y="25">DemandeStage</text>
    <text class="attr" x="14" y="62">+ id : int</text>
    <text class="attr" x="14" y="84">+ nom : String</text>
    <text class="attr" x="14" y="106">+ prenom : String</text>
    <text class="attr" x="14" y="128">+ ecole : String</text>
    <text class="attr" x="14" y="150">+ filiere : String</text>
    <text class="attr" x="14" y="172">+ niveau : String</text>
    <text class="attr" x="14" y="194">+ dureeSouhaitee : String</text>
    <text class="attr" x="14" y="216">+ statut : String</text>
  </g>

  <g transform="translate(1090 130)">
    <rect class="class" width="260" height="170"/>
    <rect class="head-purple" width="260" height="38"/>
    <text class="class-name" x="130" y="25">Document</text>
    <text class="attr" x="14" y="62">+ id : int</text>
    <text class="attr" x="14" y="84">+ nomFichier : String</text>
    <text class="attr" x="14" y="106">+ typeDocument : String</text>
    <text class="attr" x="14" y="128">+ cheminFichier : String</text>
    <text class="attr" x="14" y="150">+ dateDepot : Date</text>
  </g>

  <g transform="translate(80 430)">
    <rect class="class" width="250" height="150"/>
    <rect class="head-green" width="250" height="38"/>
    <text class="class-name" x="125" y="25">Encadreur</text>
    <text class="attr" x="14" y="62">+ id : int</text>
    <text class="attr" x="14" y="84">+ specialite : String</text>
    <text class="attr" x="14" y="106">+ fonction : String</text>
  </g>

  <g transform="translate(410 420)">
    <rect class="class" width="250" height="160"/>
    <rect class="head-green" width="250" height="38"/>
    <text class="class-name" x="125" y="25">Stagiaire</text>
    <text class="attr" x="14" y="62">+ id : int</text>
    <text class="attr" x="14" y="84">+ matricule : String</text>
    <text class="attr" x="14" y="106">+ dateAdmission : Date</text>
    <text class="attr" x="14" y="128">+ statut : String</text>
  </g>

  <g transform="translate(760 415)">
    <rect class="class" width="270" height="190"/>
    <rect class="head-orange" width="270" height="38"/>
    <text class="class-name" x="135" y="25">Stage</text>
    <text class="attr" x="14" y="62">+ id : int</text>
    <text class="attr" x="14" y="84">+ numeroStage : String</text>
    <text class="attr" x="14" y="106">+ dateDebut : Date</text>
    <text class="attr" x="14" y="128">+ dateFin : Date</text>
    <text class="attr" x="14" y="150">+ duree : String</text>
    <text class="attr" x="14" y="172">+ statut : String</text>
  </g>

  <g transform="translate(1120 420)">
    <rect class="class" width="240" height="145"/>
    <rect class="head" width="240" height="38"/>
    <text class="class-name" x="120" y="25">Service</text>
    <text class="attr" x="14" y="62">+ id : int</text>
    <text class="attr" x="14" y="84">+ nom : String</text>
    <text class="attr" x="14" y="106">+ description : String</text>
  </g>

  <g transform="translate(1450 395)">
    <rect class="class" width="260" height="190"/>
    <rect class="head" width="260" height="38"/>
    <text class="class-name" x="130" y="25">Projet</text>
    <text class="attr" x="14" y="62">+ id : int</text>
    <text class="attr" x="14" y="84">+ titre : String</text>
    <text class="attr" x="14" y="106">+ description : String</text>
    <text class="attr" x="14" y="128">+ dateDebut : Date</text>
    <text class="attr" x="14" y="150">+ dateFin : Date</text>
  </g>

  <g transform="translate(80 725)">
    <rect class="class" width="255" height="170"/>
    <rect class="head" width="255" height="38"/>
    <text class="class-name" x="127" y="25">Objectif</text>
    <text class="attr" x="14" y="62">+ id : int</text>
    <text class="attr" x="14" y="84">+ libelle : String</text>
    <text class="attr" x="14" y="106">+ description : String</text>
    <text class="attr" x="14" y="128">+ ordre : int</text>
    <text class="attr" x="14" y="150">+ statut : String</text>
  </g>

  <g transform="translate(410 705)">
    <rect class="class" width="260" height="195"/>
    <rect class="head" width="260" height="38"/>
    <text class="class-name" x="130" y="25">Tache</text>
    <text class="attr" x="14" y="62">+ id : int</text>
    <text class="attr" x="14" y="84">+ titre : String</text>
    <text class="attr" x="14" y="106">+ description : String</text>
    <text class="attr" x="14" y="128">+ dateCreation : Date</text>
    <text class="attr" x="14" y="150">+ dateLimite : Date</text>
    <text class="attr" x="14" y="172">+ statut : String</text>
  </g>

  <g transform="translate(765 705)">
    <rect class="class" width="260" height="170"/>
    <rect class="head-green" width="260" height="38"/>
    <text class="class-name" x="130" y="25">JournalBord</text>
    <text class="attr" x="14" y="62">+ id : int</text>
    <text class="attr" x="14" y="84">+ dateActivite : Date</text>
    <text class="attr" x="14" y="106">+ travauxRealises : String</text>
    <text class="attr" x="14" y="128">+ difficultes : String</text>
    <text class="attr" x="14" y="150">+ observations : String</text>
  </g>

  <g transform="translate(1110 690)">
    <rect class="class" width="285" height="220"/>
    <rect class="head-purple" width="285" height="38"/>
    <text class="class-name" x="142" y="25">Livrable</text>
    <text class="attr" x="14" y="62">+ id : int</text>
    <text class="attr" x="14" y="84">+ titre : String</text>
    <text class="attr" x="14" y="106">+ description : String</text>
    <text class="attr" x="14" y="128">+ fichier : String</text>
    <text class="attr" x="14" y="150">+ dateDepot : Date</text>
    <text class="attr" x="14" y="172">+ statut : String</text>
    <text class="attr" x="14" y="194">+ commentaireEncadreur : String</text>
  </g>

  <g transform="translate(1460 700)">
    <rect class="class" width="260" height="170"/>
    <rect class="head-orange" width="260" height="38"/>
    <text class="class-name" x="130" y="25">Archive</text>
    <text class="attr" x="14" y="62">+ id : int</text>
    <text class="attr" x="14" y="84">+ dateArchivage : Date</text>
    <text class="attr" x="14" y="106">+ motif : String</text>
  </g>

  <g transform="translate(390 1010)">
    <rect class="class" width="275" height="150"/>
    <rect class="head-orange" width="275" height="38"/>
    <text class="class-name" x="137" y="25">Evaluation</text>
    <text class="attr" x="14" y="62">+ id : int</text>
    <text class="attr" x="14" y="84">+ typeEvaluation : String</text>
    <text class="attr" x="14" y="106">+ dateEvaluation : Date</text>
    <text class="attr" x="14" y="128">+ appreciation : String</text>
  </g>

  <g transform="translate(775 1010)">
    <rect class="class" width="260" height="130"/>
    <rect class="head" width="260" height="38"/>
    <text class="class-name" x="130" y="25">NoteEvaluation</text>
    <text class="attr" x="14" y="62">+ id : int</text>
    <text class="attr" x="14" y="84">+ note : float</text>
    <text class="attr" x="14" y="106">+ commentaire : String</text>
  </g>

  <g transform="translate(1140 1010)">
    <rect class="class" width="270" height="130"/>
    <rect class="head" width="270" height="38"/>
    <text class="class-name" x="135" y="25">CritereEvaluation</text>
    <text class="attr" x="14" y="62">+ id : int</text>
    <text class="attr" x="14" y="84">+ libelle : String</text>
    <text class="attr" x="14" y="106">+ description : String</text>
  </g>

  <!-- Relationships -->
  <path class="rel" d="M300 198 L380 198"/>
  <text class="label" x="315" y="185">1</text><text class="label" x="360" y="185">0..*</text>

  <path class="rel" d="M505 325 L505 420"/>
  <text class="label" x="515" y="355">1</text><text class="label" x="515" y="405">0..1</text>

  <path class="rel" d="M420 325 C330 360 250 390 205 430"/>
  <text class="label" x="330" y="350">0..1</text>

  <path class="rel" d="M990 220 L1090 220"/>
  <text class="label" x="1005" y="205">1</text><text class="label" x="1060" y="205">0..*</text>

  <path class="rel" d="M855 350 L555 420"/>
  <text class="label" x="760" y="365">1</text><text class="label" x="590" y="400">0..1</text>

  <path class="rel" d="M660 500 L760 500"/>
  <text class="label" x="675" y="485">1</text><text class="label" x="735" y="485">1</text>

  <path class="rel" d="M330 505 L760 505"/>
  <text class="label" x="345" y="490">1</text><text class="label" x="725" y="490">0..*</text>

  <path class="rel" d="M1030 500 L1120 500"/>
  <text class="label" x="1045" y="485">0..*</text><text class="label" x="1095" y="485">1</text>

  <path class="rel" d="M1030 480 L1450 480"/>
  <text class="label" x="1050" y="465">0..*</text><text class="label" x="1425" y="465">1</text>

  <path class="rel" d="M810 605 C660 660 500 670 210 725"/>
  <text class="label" x="700" y="645">1</text><text class="label" x="245" y="710">0..*</text>

  <path class="rel" d="M855 605 C760 655 650 685 540 705"/>
  <text class="label" x="760" y="640">1</text><text class="label" x="570" y="690">0..*</text>

  <path class="rel" d="M895 605 L895 705"/>
  <text class="label" x="905" y="630">1</text><text class="label" x="905" y="690">0..*</text>

  <path class="rel" d="M670 800 L1110 800"/>
  <text class="label" x="685" y="785">1</text><text class="label" x="1080" y="785">0..*</text>

  <path class="rel" d="M1030 575 C1230 610 1420 650 1530 700"/>
  <text class="label" x="1120" y="610">1</text><text class="label" x="1485" y="685">0..1</text>

  <path class="rel" d="M830 605 C735 770 615 925 520 1010"/>
  <text class="label" x="715" y="775">1</text><text class="label" x="540" y="995">0..*</text>

  <path class="rel" d="M665 1080 L775 1080"/>
  <text class="label" x="680" y="1065">1</text><text class="label" x="742" y="1065">1..*</text>

  <path class="rel" d="M1035 1075 L1140 1075"/>
  <text class="label" x="1050" y="1060">0..*</text><text class="label" x="1115" y="1060">1</text>

  <!-- Legend -->
  <rect x="70" y="1165" width="28" height="18" fill="#eaf2ff" stroke="#344054"/>
  <text class="legend" x="108" y="1179">Gestion et securite</text>
  <rect x="270" y="1165" width="28" height="18" fill="#fff4e6" stroke="#344054"/>
  <text class="legend" x="308" y="1179">Cycle du stage</text>
  <rect x="470" y="1165" width="28" height="18" fill="#eafaf0" stroke="#344054"/>
  <text class="legend" x="508" y="1179">Acteurs internes</text>
  <rect x="680" y="1165" width="28" height="18" fill="#f2edff" stroke="#344054"/>
  <text class="legend" x="718" y="1179">Documents et livrables</text>
</svg>
